<svg width="5" height="22" viewBox="0 0 5 22" fill="none" xmlns="http://www.w3.org/2000/svg">
<path d="M2.8125 11.8125C3.46834 11.8125 4 11.2808 4 10.625C4 9.96916 3.46834 9.4375 2.8125 9.4375C2.15666 9.4375 1.625 9.96916 1.625 10.625C1.625 11.2808 2.15666 11.8125 2.8125 11.8125Z" fill="#828282" stroke="#828282" stroke-width="2" stroke-linecap="round" stroke-linejoin="round"/>
<path d="M2.8125 3.5C3.46834 3.5 4 2.96834 4 2.3125C4 1.65666 3.46834 1.125 2.8125 1.125C2.15666 1.125 1.625 1.65666 1.625 2.3125C1.625 2.96834 2.15666 3.5 2.8125 3.5Z" fill="#828282" stroke="#828282" stroke-width="2" stroke-linecap="round" stroke-linejoin="round"/>
<path d="M2.8125 20.125C3.46834 20.125 4 19.5933 4 18.9375C4 18.2817 3.46834 17.75 2.8125 17.75C2.15666 17.75 1.625 18.2817 1.625 18.9375C1.625 19.5933 2.15666 20.125 2.8125 20.125Z" fill="#828282" stroke="#828282" stroke-width="2" stroke-linecap="round" stroke-linejoin="round"/>
</svg>
