<svg width="24" height="24" viewBox="0 0 24 24" fill="none" xmlns="http://www.w3.org/2000/svg">
<path fill-rule="evenodd" clip-rule="evenodd" d="M2.89035 4.28152C2.91778 4.24941 2.96312 4.20407 3.03664 4.14617C3.27067 3.96187 3.67133 3.75216 4.25563 3.55754C5.41377 3.17177 7.07738 2.91602 8.96083 2.91602C10.8443 2.91602 12.5079 3.17177 13.666 3.55754C14.2503 3.75216 14.651 3.96187 14.885 4.14617C14.9586 4.20407 15.0039 4.24941 15.0313 4.28152C15.0039 4.31362 14.9586 4.35896 14.885 4.41687C14.651 4.60117 14.2503 4.81087 13.666 5.0055C12.5079 5.39126 10.8443 5.64702 8.96083 5.64702C7.07738 5.64702 5.41377 5.39126 4.25563 5.0055C3.67133 4.81087 3.27067 4.60117 3.03664 4.41687C2.96312 4.35896 2.91778 4.31363 2.89035 4.28152ZM3.62271 1.66017C5.03488 1.18979 6.92212 0.916016 8.96083 0.916016C10.9995 0.916016 12.8868 1.18979 14.299 1.66017C14.9998 1.89362 15.6392 2.19364 16.1239 2.57535C16.5966 2.9476 17.0618 3.51544 17.0633 4.27802L17.0633 4.28125V4.28152V8.80078H15.0618V6.60902C14.8196 6.71701 14.5637 6.81469 14.299 6.90286C12.8868 7.37324 10.9995 7.64702 8.96083 7.64702C6.92212 7.64702 5.03488 7.37324 3.62271 6.90286C3.35798 6.81469 3.10203 6.71701 2.85986 6.60902V9.76263C2.87633 9.78941 2.92196 9.84895 3.03547 9.93883C3.2672 10.1223 3.66499 10.3316 4.24736 10.5258C4.99043 10.7737 5.94431 10.9678 7.03536 11.0747V13.0833C5.74124 12.9693 4.56801 12.7413 3.61356 12.4229C3.35207 12.3357 3.09922 12.2391 2.85986 12.1324V15.2821C2.87633 15.3089 2.92196 15.3684 3.03547 15.4583C3.2672 15.6418 3.66499 15.851 4.24736 16.0453C4.99043 16.2932 5.94431 16.4873 7.03536 16.5942V18.6028C5.74124 18.4887 4.56801 18.2608 3.61356 17.9424C2.91368 17.7089 2.2758 17.4086 1.79243 17.0258C1.31906 16.651 0.858398 16.0819 0.858398 15.3203V9.80078V4.28152V4.28125V4.27963C0.859165 3.51624 1.32476 2.94787 1.79779 2.57535C2.28249 2.19364 2.92186 1.89362 3.62271 1.66017ZM2.85162 15.2659C2.85179 15.2659 2.85272 15.2677 2.85389 15.2715C2.85204 15.2678 2.85145 15.2659 2.85162 15.2659ZM10.4712 10.5898C10.0815 10.5898 9.72735 10.8158 9.56337 11.169C9.3994 11.5221 9.45545 11.9383 9.70703 12.2356L14.1384 17.4719V20.919C14.1384 21.2978 14.3526 21.6441 14.6916 21.8134L17.0256 22.9796C17.3358 23.1346 17.7042 23.118 17.9993 22.9358C18.2943 22.7536 18.4739 22.4317 18.4739 22.0852V17.4719L22.9053 12.2356C23.1569 11.9383 23.2129 11.5221 23.0489 11.169C22.885 10.8158 22.5308 10.5898 22.1412 10.5898H10.4712ZM15.9033 16.46L12.628 12.5898H19.9843L16.709 16.46C16.5563 16.6405 16.4724 16.8693 16.4724 17.1057V20.4671L16.1399 20.301V17.1057C16.1399 16.8693 16.0561 16.6405 15.9033 16.46Z" fill="#3367D6"/>
</svg>
