<svg width="38" height="31" viewBox="0 0 38 31" fill="none" xmlns="http://www.w3.org/2000/svg">
<path fill-rule="evenodd" clip-rule="evenodd" d="M2.8125 0C1.70793 0 0.8125 0.89543 0.8125 2V4V25V29H32.5V8C32.5 5.79086 30.7091 4 28.5 4H11.5V2C11.5 0.895431 10.6046 0 9.5 0H2.8125Z" fill="#E8B826"/>
<path d="M7.5 10C7.5 8.89543 8.39543 8 9.5 8H28.5C29.6046 8 30.5 8.89543 30.5 10V11H7.5V10Z" fill="white"/>
<path d="M4.44168 12.7891C4.76939 11.4455 5.9732 10.5 7.35624 10.5H33.6803C35.625 10.5 37.0557 12.3216 36.5949 14.2109L33.0583 28.7109C32.7306 30.0545 31.5268 31 30.1438 31H3.81965C1.87505 31 0.444304 29.1784 0.90509 27.2891L4.44168 12.7891Z" fill="#FFC928"/>
</svg>
