<svg width="119" height="108" viewBox="0 0 119 108" fill="none" xmlns="http://www.w3.org/2000/svg">
<path d="M67.2296 73.0574C43.9329 78.8096 28.5216 97.9839 23.7281 106.852H119L110.372 78.0906C105.698 74.0161 90.5263 67.3051 67.2296 73.0574Z" fill="#EB4235"/>
<path d="M78.7537 37.1359C79.4866 30.9539 74.5353 21.1279 71.9681 16.9877L71.2507 16.2671C64.6583 16.7915 50.3924 19.0604 46.0672 23.9401C41.742 28.8199 46.1658 33.4077 48.9183 35.0916L44.7221 62.5853L64.1485 57.0564L64.1755 45.0126C72.6213 46.2899 77.8375 44.8635 78.7537 37.1359Z" fill="#E8EAEE"/>
<path d="M80.4341 9.27705C80.4105 19.7749 61.4095 21.3946 54.5796 20.9598C54.3403 20.7795 54.2551 21.3905 55.8282 25.2768C57.7947 30.1347 52.0396 31.3801 50.0687 28.4996C48.0978 25.619 54.33 26.655 46.2474 23.7607C38.3489 18.8895 39.4493 9.18502 50.0687 3.09708C58.5643 -1.77327 64.0364 0.252299 65.7105 1.87388C70.6282 -0.0325089 80.4577 -1.22081 80.4341 9.27705Z" fill="black"/>
<path d="M76.2898 27.4233C76.2859 29.1599 76.8205 30.7055 77.6531 31.8015C78.4851 32.8969 79.5831 33.5116 80.7392 33.5142C81.8953 33.5167 82.9959 32.907 83.8329 31.8154C84.6704 30.7231 85.2119 29.18 85.2158 27.4434C85.2197 25.7068 84.6851 24.1612 83.8526 23.0652C83.0205 21.9698 81.9226 21.3551 80.7665 21.3526C79.6104 21.35 78.5097 21.9597 77.6727 23.0513C76.8353 24.1436 76.2937 25.6867 76.2898 27.4233Z" stroke="#FBBC05" stroke-width="1.5"/>
<path d="M66.9424 27.4028C66.9385 29.1394 67.4731 30.685 68.3057 31.781C69.1377 32.8764 70.2356 33.491 71.3918 33.4936C72.5479 33.4962 73.6485 32.8865 74.4855 31.7949C75.323 30.7026 75.8645 29.1595 75.8684 27.4229C75.8723 25.6863 75.3377 24.1407 74.5052 23.0447C73.6731 21.9493 72.5752 21.3346 71.4191 21.332C70.2629 21.3294 69.1623 21.9392 68.3253 23.0308C67.4878 24.1231 66.9463 25.6662 66.9424 27.4028Z" stroke="#FBBC05" stroke-width="1.5"/>
<path d="M66.7309 27.7617L58.6418 27.7436" stroke="#FBBC05" stroke-width="2" stroke-linecap="round"/>
<path d="M64.1739 55.186L57.5228 41.5244C57.5228 41.5244 60.5956 43.3132 62.7358 44.041C65.3692 44.9366 69.7464 45.2993 69.7464 45.2993C68.8836 45.2993 65.6719 45.0597 64.1739 44.9398L64.1739 55.186Z" fill="#B3B3B3"/>
<path d="M42.6246 56.9835C29.8259 57.2711 18.4771 70.0459 14.4026 76.3974V99.9458L36.3331 83.2282L39.2092 106.777L90.5982 104.979C93.1148 94.1934 90.5982 99.9458 90.5982 80.5317C90.5982 67.1129 89.9888 59.3959 79.0936 56.9834C67.3893 54.3917 50.9103 56.7973 42.6246 56.9835Z" fill="#4484F5"/>
<path d="M20.3346 27.8621C20.3346 30.882 15.6609 40.1456 13.324 44.3998C15.6609 62.7352 23.75 101.923 10.2682 101.923C1.96715 101.923 0.08186 98.3274 0.0219351 95.2715C0.441374 78.6738 1.49596 45.2627 2.3588 44.3998C3.43735 43.3213 0.740968 31.0977 0.0219351 24.0872C-0.553291 18.4787 10.3281 16.3576 15.8407 15.998L16.7395 25.705C17.9378 25.1657 20.3346 24.8421 20.3346 27.8621Z" fill="#E8EAEE"/>
<path d="M35.5922 103.9V107.496H107.496V103.9L118.641 73.701L81.4306 71.7236L71.9034 103.9H35.5922Z" fill="#E8EAEE"/>
<ellipse cx="96.5895" cy="89.49" rx="4.49396" ry="3.77492" transform="rotate(0.753694 96.5895 89.49)" fill="#B3B3B3"/>
</svg>
